<svg fill="none" height="1118" viewBox="0 0 1024 1118" width="1024" xmlns="http://www.w3.org/2000/svg" xmlns:xlink="http://www.w3.org/1999/xlink"><linearGradient id="a"><stop offset="0" stop-color="#010101" stop-opacity=".01"/><stop offset=".95" stop-color="#010101"/></linearGradient><linearGradient id="b" gradientUnits="userSpaceOnUse" x1="528.688" x2="593.442" xlink:href="#a" y1="566.166" y2="437.6"/><linearGradient id="c" gradientUnits="userSpaceOnUse" x1="583.849" x2="676.703" xlink:href="#a" y1="562.365" y2="380.775"/><linearGradient id="d" gradientUnits="userSpaceOnUse" x1="703.831" x2="841.184" xlink:href="#a" y1="571.092" y2="260.948"/><linearGradient id="e"><stop offset="0" stop-color="#010101" stop-opacity=".01"/><stop offset=".36" stop-color="#010101" stop-opacity=".36"/><stop offset=".95" stop-color="#010101"/></linearGradient><linearGradient id="f" gradientUnits="userSpaceOnUse" x1="831.665" x2="1036.59" xlink:href="#e" y1="587.583" y2="140.178"/><linearGradient id="g"><stop offset="0" stop-color="#fff" stop-opacity=".01"/><stop offset=".07" stop-color="#fff" stop-opacity=".22"/><stop offset=".16" stop-color="#fff" stop-opacity=".45"/><stop offset=".25" stop-color="#fff" stop-opacity=".65"/><stop offset=".33" stop-color="#fff" stop-opacity=".8"/><stop offset=".4" stop-color="#fff" stop-opacity=".91"/><stop offset=".46" stop-color="#fff" stop-opacity=".98"/><stop offset=".51" stop-color="#fff"/></linearGradient><linearGradient id="h" gradientUnits="userSpaceOnUse" x1="683.012" x2="800.171" xlink:href="#g" y1="482.564" y2="240.969"/><linearGradient id="i" gradientUnits="userSpaceOnUse" x1="604.936" x2="669.132" xlink:href="#g" y1="429.444" y2="293.555"/><linearGradient id="j" gradientUnits="userSpaceOnUse" x1="910.258" x2="920.679" xlink:href="#a" y1="892.322" y2="765.584"/><linearGradient id="k" gradientUnits="userSpaceOnUse" x1="508.545" x2="505.829" xlink:href="#g" y1="429.517" y2="879.071"/><linearGradient id="l" gradientUnits="userSpaceOnUse" x1="254.891" x2="254.991" xlink:href="#a" y1="867.073" y2="1009.31"/><linearGradient id="m" gradientUnits="userSpaceOnUse" x1="1407.3" x2="1441.49" xlink:href="#g" y1="612.966" y2="205.855"/><linearGradient id="n" gradientUnits="userSpaceOnUse" x1="580.424" x2="718.43" xlink:href="#g" y1="502.87" y2="871.142"/><linearGradient id="o" gradientUnits="userSpaceOnUse" x1="683.954" x2="680.629" xlink:href="#g" y1="525.99" y2="808.698"/><linearGradient id="p" gradientUnits="userSpaceOnUse" x1="999.788" x2="1018.98" xlink:href="#a" y1="717.704" y2="139.785"/><linearGradient id="q" gradientUnits="userSpaceOnUse" x1="998.937" x2="1018.12" xlink:href="#a" y1="718.045" y2="140.125"/><linearGradient id="r" gradientUnits="userSpaceOnUse" x1="904.757" x2="923.973" xlink:href="#a" y1="715.354" y2="137.435"/><linearGradient id="s" gradientUnits="userSpaceOnUse" x1="903.906" x2="923.122" xlink:href="#a" y1="715.694" y2="137.776"/><linearGradient id="t" gradientUnits="userSpaceOnUse" x1="997.998" x2="1017.21" xlink:href="#a" y1="719.545" y2="141.627"/><linearGradient id="u" gradientUnits="userSpaceOnUse" x1="903.968" x2="923.155" xlink:href="#a" y1="717.236" y2="139.317"/><linearGradient id="v" gradientUnits="userSpaceOnUse" x1="951.958" x2="971.174" xlink:href="#a" y1="718.396" y2="140.499"/><linearGradient id="w" gradientUnits="userSpaceOnUse" x1="953.774" x2="972.99" xlink:href="#a" y1="715.843" y2="137.925"/><linearGradient id="x" gradientUnits="userSpaceOnUse" x1="608.696" x2="840.928" xlink:href="#g" y1="730.399" y2="947.094"/><linearGradient id="y" gradientUnits="userSpaceOnUse" x1="957.563" x2="955.778" xlink:href="#g" y1="510.864" y2="646.026"/><linearGradient id="z" gradientUnits="userSpaceOnUse" x1="957.563" x2="955.778" xlink:href="#g" y1="620.864" y2="756.026"/><linearGradient id="A" gradientUnits="userSpaceOnUse" x1="593.723" x2="593.705" xlink:href="#g" y1="546.281" y2="564.481"/><linearGradient id="B" gradientUnits="userSpaceOnUse" x1="513.022" x2="626.453" xlink:href="#a" y1="599.052" y2="509.635"/><linearGradient id="C" gradientUnits="userSpaceOnUse" x1="562.861" x2="724.138" xlink:href="#a" y1="618.988" y2="493.867"/><linearGradient id="D" gradientUnits="userSpaceOnUse" x1="667.805" x2="923.97" xlink:href="#a" y1="677.751" y2="455.028"/><linearGradient id="E" gradientUnits="userSpaceOnUse" x1="776.565" x2="1152.25" xlink:href="#e" y1="746.865" y2="428.45"/><linearGradient id="F" gradientUnits="userSpaceOnUse" x1="624.823" x2="807.763" xlink:href="#g" y1="509.751" y2="378.322"/><linearGradient id="G" gradientUnits="userSpaceOnUse" x1="638.437" x2="754.295" xlink:href="#g" y1="507.517" y2="411.658"/><linearGradient id="H" gradientUnits="userSpaceOnUse" x1="504.024" x2="542.208" xlink:href="#g" y1="673.745" y2="673.767"/><linearGradient id="I" gradientUnits="userSpaceOnUse" x1="430.731" x2="442.383" xlink:href="#a" y1="576.2" y2="614.932"/><linearGradient id="J" gradientUnits="userSpaceOnUse" x1="455.53" x2="556.432" xlink:href="#a" y1="724.933" y2="726.976"/><linearGradient id="K" gradientUnits="userSpaceOnUse" x1="858.301" x2="762.207" xlink:href="#a" y1="882.512" y2="717.732"/><linearGradient id="L" gradientUnits="userSpaceOnUse" x1="859.323" x2="686.437" xlink:href="#a" y1="420.892" y2="425.761"/><path d="m318.921 43.6942c-119.938 100.5228-138.525 290.6038-219.7544 430.8328-28.2768 48.795-64.8143 92.465-83.8773 146.596-43.7655 123.903 16.4683 264.449 97.0887 362.858 38.444 46.949 83.348 89.959 137.678 109.739 41.779 15.22 86.578 15.85 130.555 16.25l770.459 7.93c86.03.87 181.61-2.28 243.46-68.69 42.62-45.73 59.94-112.518 74.63-176.266 18.06-78.331 34.42-163.398 6.33-238.004-32.09-85.358-113.24-133.73-163.65-207.385-81.81-119.332-79.93-299.824-184.12-395.0886-48.63-44.4623-112.81-61.8985-175.351-70.6166-117.9-16.4587-229.577 14.6094-345.358 10.2768-98.969-3.6986-205.987 2.7475-288.09 71.5676z" fill="#e7ecff" opacity=".5"/><path d="m560.363 939.613c-46.449 4.67-94.323 9.806-135.196 32.651-5.471 3.064-11.026 6.678-14.044 12.194-6.058 11.095.818 25.722 11.487 32.402 10.669 6.67 23.832 7.43 36.387 7.98 223.567 9.75 447.47 5.92 671.223 2.12 64.98-1.1 130.99-2.37 193.26-21.24 11.19-3.38 23.5-8.455 27.71-19.508 5.51-14.455-7.06-30.475-21.74-34.976-14.67-4.501-30.33-1.141-45.5.824-52.7 6.826-105.85-3.614-158.32-11.961-102.71-16.315-209.27-29.587-313.298-32.06-35.465-.824-65.754 11.476-100.465 16.337-50.117 7.058-101.114 10.165-151.504 15.237z" fill="#505f98" opacity=".24"/><path d="m377.654 506.326 115.83-235.918 68.986 33.782-115.829 235.918z" fill="#fff"/><path d="m404.5 499.055 14.113-28.835 46.464 22.683-14.113 28.835z" fill="#505f98"/><path d="m404.5 499.055 14.113-28.835 46.464 22.683-14.113 28.835z" fill="url(#b)"/><path d="m418.615 470.445 14.114-28.835 46.464 22.683-14.114 28.835z" fill="#505f98"/><path d="m418.615 470.445 14.114-28.835 46.464 22.683-14.114 28.835z" fill="url(#c)"/><path d="m432.712 441.826 14.113-28.835 46.464 22.683-14.113 28.835z" fill="#505f98"/><path d="m432.712 441.826 14.113-28.835 46.464 22.683-14.113 28.835z" fill="url(#d)"/><path d="m446.848 413.237 14.114-28.835 46.464 22.683-14.114 28.835z" fill="#505f98"/><path d="m446.848 413.237 14.114-28.835 46.464 22.683-14.114 28.835z" fill="url(#f)"/><path d="m460.954 384.599 14.114-28.835 46.464 22.683-14.114 28.835z" fill="#505f98"/><path d="m475.07 356.01 14.113-28.835 46.464 22.683-14.113 28.835z" fill="#505f98"/><path d="m489.166 327.391 14.114-28.835 46.464 22.683-14.114 28.835z" fill="#505f98"/><path d="m473.482 359.598 14.113-28.835 46.464 22.683-14.113 28.835z" fill="url(#h)"/><path d="m487.606 330.97 14.114-28.835 46.464 22.682-14.114 28.835z" fill="url(#i)"/><path d="m788.123 824h98.0679v82h-98.0679z" fill="#505f98"/><path d="m788.123 824h98.0679v82h-98.0679z" fill="url(#j)"/><rect fill="#505f98" height="355" rx="9.37" width="518.359" x="579.979" y="482"/><path d="m1081.33 511.438v294.124c.01 4.881-1.91 9.567-5.35 13.026s-8.12 5.406-12.99 5.412h-451.665c-4.874-.011-9.545-1.96-12.984-5.418-3.439-3.457-5.364-8.141-5.353-13.02v-294.124c-.011-4.879 1.914-9.563 5.353-13.02 3.439-3.458 8.11-5.407 12.984-5.418h451.665c4.87.006 9.55 1.953 12.99 5.412s5.36 8.145 5.35 13.026z" fill="url(#k)" opacity=".65"/><path d="m743.092 896h206.143v21h-206.143z" fill="#505f98"/><path d="m788.123 884h98.0679v12h-98.0679z" fill="url(#l)"/><path clip-rule="evenodd" d="m943.23 310.241v20.474l-12.709.104c-1.236 9.527-4.86 18.591-10.538 26.362l10.854 11.17-14.88 14.249-10.686-11.022c-6.588 4.484-14.024 7.592-21.856 9.136v13.286h-20.57v-12.971c-8.785-1.269-17.158-4.532-24.47-9.535l-8.937 8.822-14.564-14.669 8.874-8.654c-5.587-7.774-9.149-16.802-10.37-26.278h-14.248v-20.474h14.754c1.829-8.148 5.425-15.8 10.538-22.422l-8.241-8.487 14.88-14.25 8.431 8.738c6.97-4.606 14.894-7.592 23.184-8.738v-14.082h20.571v14.396c8.368 1.659 16.277 5.097 23.184 10.08l10.538-10.31 14.479 14.543-10.538 10.478c4.132 6.08 7.064 12.886 8.642 20.054zm-106.141 12.909c-.023 19.061 15.499 34.532 34.671 34.555 9.211.028 18.055-3.592 24.577-10.061 6.521-6.468 10.184-15.252 10.178-24.411.023-19.061-15.499-34.532-34.671-34.555-19.171-.023-34.732 15.41-34.755 34.472z" fill="#505f98" fill-rule="evenodd"/><path clip-rule="evenodd" d="m1019.28 344.354-.92 12.042-7.51-.458c-1.12 5.537-3.63 10.703-7.28 15.02l5.86 7.063-9.35 7.708-5.756-6.937c-4.054 2.338-8.54 3.833-13.188 4.396l-.606 7.812-12.04-.896.584-7.625c-5.086-1.135-9.841-3.423-13.898-6.687l-5.635 4.791-7.867-9.187 5.572-4.708c-2.929-4.812-4.614-10.274-4.904-15.896l-8.118-.625.897-12.021 8.619.646c1.423-4.707 3.851-9.049 7.116-12.73l-4.445-5.354 9.349-7.708 4.528 5.5c4.272-2.405 9.027-3.828 13.919-4.167l.626-8.333 12.041.896-.646 8.479c4.807 1.339 9.264 3.706 13.063 6.937l6.619-5.604 7.84 9.188-6.68 5.687c2.17 3.756 3.59 7.894 4.18 12.188zm-62.694 2.889c-.855 11.193 7.537 20.96 18.748 21.819 5.395.425 10.736-1.315 14.841-4.834 4.105-3.52 6.635-8.528 7.029-13.916.843-11.193-7.56-20.951-18.773-21.798-11.212-.848-20.99 7.536-21.845 18.729z" fill="#505f98" fill-rule="evenodd"/><path d="m1081.33 511.513v6.487h-488.342v-6.487c-.011-4.899 1.914-9.601 5.354-13.073 3.439-3.472 8.11-5.429 12.985-5.44h451.663c4.87.006 9.55 1.961 12.99 5.434s5.36 8.179 5.35 13.079z" fill="url(#m)"/><path d="m602.995 550h47.0326v227h-47.0326z" fill="url(#n)"/><path d="m721.076 566h221.153v209h-221.153z" fill="url(#o)"/><path d="m772.112 664h7.00485v9h-7.00485z" fill="url(#p)"/><path d="m772.112 622h7.00485v9h-7.00485z" fill="url(#q)"/><path d="m677.046 664h7.00485v9h-7.00485z" fill="url(#r)"/><path d="m677.046 622h7.00485v9h-7.00485z" fill="url(#s)"/><path d="m772.112 577h7.00485v9h-7.00485z" fill="url(#t)"/><path d="m678.047 577h7.00485v9h-7.00485z" fill="url(#u)"/><path d="m726.08 577h7.00485v9h-7.00485z" fill="url(#v)"/><path d="m726.08 664h7.00485v9h-7.00485z" fill="url(#w)"/><path clip-rule="evenodd" d="m690.055 662h78.054v-73h-78.054zm70.192-7.718h-62.33v-57.626h62.33z" fill="#505f98" fill-rule="evenodd"/><path clip-rule="evenodd" d="m690.055 662h78.054v-73h-78.054zm70.192-7.718h-62.33v-57.626h62.33z" fill="url(#x)" fill-rule="evenodd"/><path d="m974.252 530h100.069v100h-100.069z" fill="url(#y)"/><path d="m974.252 640h100.069v100h-100.069z" fill="url(#z)"/><path d="m602.995 549h47.0326v13h-47.0326z" fill="url(#A)" opacity=".65"/><path d="m399.958 480.827 205.129-164.534 48.112 59.825-205.128 164.534z" fill="#fff"/><path d="m428.682 485.455 25.068-20.22 32.582 40.287-25.067 20.22z" fill="#505f98"/><path d="m428.682 485.455 25.068-20.22 32.582 40.287-25.067 20.22z" fill="url(#B)"/><path d="m452.3 465.689 25.032-20.129 32.435 40.23-25.032 20.129z" fill="#505f98"/><path d="m452.3 465.689 25.032-20.129 32.435 40.23-25.032 20.129z" fill="url(#C)"/><path d="m477.244 445.761 25.032-20.128 32.435 40.23-25.032 20.128z" fill="#505f98"/><path d="m477.244 445.761 25.032-20.128 32.435 40.23-25.032 20.128z" fill="url(#D)"/><path d="m502.172 425.847 25.032-20.129 32.435 40.23-25.033 20.129z" fill="#505f98"/><path d="m502.172 425.847 25.032-20.129 32.435 40.23-25.033 20.129z" fill="url(#E)"/><path d="m528.292 405.389 25.067-20.22 32.583 40.287-25.068 20.22z" fill="#505f98"/><path d="m553.372 384.99 25.067-20.22 32.582 40.287-25.067 20.22z" fill="#505f98"/><path d="m576.979 366.051 25.032-20.128 32.435 40.23-25.032 20.128z" fill="#505f98"/><path d="m606.997 409.218-21.099 16.782-31.937-40.218 21.099-16.782z" fill="url(#F)"/><path d="m574.022 368.648 25.032-20.129 32.435 40.23-25.032 20.129z" fill="url(#G)"/><path d="m522.939 490.15v122.85h-21.014v-122.85c0-4.54 2.818-8.58 7.018-10.061v-12.264c0-2.113 1.676-3.825 3.743-3.825s3.743 1.712 3.743 3.825v12.472c3.92 1.638 6.488 5.526 6.51 9.853z" fill="#505f98"/><path d="m522.939 490.15v122.85h-21.014v-122.85c0-4.54 2.818-8.58 7.018-10.061v-12.264c0-2.113 1.676-3.825 3.743-3.825s3.743 1.712 3.743 3.825v12.472c3.92 1.638 6.488 5.526 6.51 9.853z" fill="url(#H)"/><rect fill="#505f98" height="9" rx="2.245" width="50.0346" x="488.916" y="568"/><path d="m513.621 650c-8.573 0-15.699-12.815-15.699-21.366v-56.634h31.021v56.634c0 8.551-6.77 21.366-15.322 21.366z" fill="#505f98"/><rect fill="url(#I)" height="9" rx="2.245" width="50.0346" x="488.916" y="568"/><path d="m513.621 650c-8.573 0-15.699-12.634-15.699-21.063v-51.937h31.021v51.937c0 8.429-6.77 21.063-15.322 21.063z" fill="url(#J)"/><path d="m713.713 710c-.673-3.564-1.098-8.61.195-8.957 2.728-.768-.195 8.957-.195 8.957z" fill="#28353d"/><path d="m856.973 905.507c-.486 12.595-10.249 58.881-10.566 71.497 0 4.198 1.12 10.643-.232 14.694-2.789 8.582-12.679 7.41-13.968 2.351l-.486-2.519c-4.585-24.518 2.79-52.332 0-84.344-1.669-19.543-9.445-57.223-14.537-57.475-2.684 0-63.942 129.14-69.267 137.096-2.62 4.01-9.994 3.38-13.566 6.613-3.571 3.232 29.752-97.905 43.72-151.35 3.257-11.031 5.381-22.361 6.339-33.818.38-6.612-1.754-8.837 4.353-10.789 4.226-1.344 10.079-.966 14.601-1.281 4.924-.378 50.714-.462 50.714 2.771-.444 17.549 4.078 77.459 2.895 106.554z" fill="#606161"/><path d="m856.973 905.507c-.486 12.595-10.249 58.881-10.566 71.497 0 4.198 1.12 10.643-.232 14.694-2.789 8.582-12.679 7.41-13.968 2.351l-.486-2.519c-4.585-24.518 2.79-52.332 0-84.344-1.669-19.543-9.445-57.223-14.537-57.475-2.684 0-63.942 129.14-69.267 137.096-2.62 4.01-9.994 3.38-13.566 6.613-3.571 3.232 29.752-97.905 43.72-151.35 3.257-11.031 5.381-22.361 6.339-33.818.38-6.612-1.754-8.837 4.353-10.789 4.226-1.344 10.079-.966 14.601-1.281 4.924-.378 50.714-.462 50.714 2.771-.444 17.549 4.078 77.459 2.895 106.554z" fill="url(#K)"/><path d="m802.9 637.148c-.386-3.985-2.268-6.148-4.108-6.148s-2.974 2.12-2.589 6.148c.088 2.974 2.332 5.449 5.306 5.852 1.861 0 1.797-1.866 1.391-5.852z" fill="#ffcd9c"/><path d="m835.293 637.159c.251-3.993 2.087-6.159 3.986-6.159s3.13 2.124 2.838 6.159c-.026 3.014-2.271 5.528-5.217 5.841-1.878 0-1.899-1.848-1.607-5.841z" fill="#ffcd9c"/><path d="m839.018 654.672c-.259 2.105-9.174 11.328-19.32 11.328-10.145 0-18.52-8.423-20.29-11.792s5.353-46.703 9.476-50.324c4.123-3.622 20.83-1.243 22.233.674 3.368 4.527 9.002 41.712 7.901 50.114z" fill="#f4ad7d"/><path d="m834.824 621.977c-1.379.662-6.795-13.135-7.931-15.452s-.953-4.696.426-5.358 3.408.704 4.544 3c1.135 2.296 4.32 17.169 2.961 17.81z" fill="#ffcd9c"/><path d="m804.453 620.987c-1.43-.486 2.358-14.808 3.184-17.284.826-2.475 2.679-4.104 4.029-3.617s1.914 2.898 1.088 5.395c-.826 2.496-6.951 15.993-8.301 15.506z" fill="#ffcd9c"/><path d="m810.131 653h21.763l3.261 20.622c-11.856 6.383-18.768 5.679-28.019-1.408z" fill="#f4ad7d"/><path d="m819.144 657.13c0-.38.906-.7 2.002-.7s2.001.32 2.001.7-.882.44-2.001.44c-1.12 0-2.002-.04-2.002-.44z" fill="#f4ad7d"/><path d="m840.177 647.808c.824-4.914 2.168-40.1-1.127-44.757s-23.024-7.67-26.015-6.943c-6.699 1.623-5.529 6.409-5.529 6.409-1.991.03-3.94.567-5.658 1.559-2.298 1.539-7.132 23.714-3.274 40.484 1.735 7.542 8.564 14.1 20.357 14.421 14.526.384 20.249-5.085 21.246-11.173z" fill="#606161"/><path d="m813.116 597.762c1.56-1.314 3.579-1.934 5.6-1.721 6.132-.033 12.216 1.099 17.934 3.335 3.171 1.112 6.05 2.935 8.42 5.332 2.387 2.465 3.487 5.919 2.968 9.326-1.052 5.013-6.315 8.114-8.041 12.936-1.389 3.867-.4 7.605-.358 11.493.028 3.143-.197 6.283-.673 9.389-.969 6.054-6.505 11.492-20.714 11.131-11.451-.319-18.082-6.84-19.766-14.339-2.279-12.446-1.681-25.255 1.748-37.429 6.171 1.433 12.485 2.146 18.818 2.124 6.715.056 13.411-.728 19.935-2.337 1.115 6.501 1.094 19.522.736 29.251" fill="#606161"/><path d="m777.988 669.954c-3.434.287-6.743 1.43-9.626 3.326-4.937 3.891-5.312 11.15-5.229 17.468-.169 8.753.438 17.504 1.813 26.149 1.479 7.929 4.166 15.544 6.375 23.305 3.481 12.629 5.309 25.66 5.438 38.764 0 7.196-.125 15.104 4.354 20.731 4.896 6.109 13.563 7.301 21.355 7.741 11.062.648 22.167.732 33.23.272 7.416-.335 15.312-1.067 21.188-5.628 4.687-3.64 15.667-126.794 7.146-129.911s-17.688-3.912-26.73-4.665c-20.272-1.715-39.355-3.075-59.314 2.448z" fill="#505f98"/><path d="m841.807 925.291c-1.087 13.964-3.679 64.709-3.679 64.709l-6.605-.23c-4.535-24.38 2.759-52.038 0-83.871-1.651-19.434-9.343-56.903-14.38-57.153 1.505-12.525 9.97-10.646 9.97-10.646 6.157 9.194 11.467 18.926 15.865 29.078 5.037 13.192-.063 44.085-1.171 58.113z" fill="url(#L)"/><g fill="#505f98"><path d="m717.45 991.024c-1.031.762-1.814 1.806-2.252 3.001-.235.984-.14 2.015.271 2.94 1.166 2.361 3.377 4.055 5.985 4.585 2.576.49 5.214.58 7.819.27l8.34-.56c2.123-.05 4.228-.39 6.256-1 2.03-.633 3.706-2.062 4.629-3.952.491-1.392.683-2.87.563-4.339 0-6.805-2.419-12.335-9.967-10.67-7.907 1.466-15.334 4.803-21.644 9.725z"/><path d="m855.988 994.063c.948.696 1.667 1.646 2.067 2.734.215.885.131 1.814-.239 2.649-1.063 2.134-3.092 3.664-5.483 4.134-2.357.46-4.774.54-7.159.25l-7.573-.5c-1.926-.05-3.837-.35-5.679-.9-1.857-.57-3.386-1.86-4.221-3.577-.448-1.258-.626-2.593-.523-3.921 0-6.147 2.176-11.212 9.118-9.644 7.196 1.331 13.953 4.342 19.692 8.775z"/><path d="m865.176 672s32.716 19.164 42.541 43.389c9.826 24.225-32.179 82.611-32.179 82.611l-8.989-9.186s21.925-44.055 18.536-55.074c-3.39-11.019-16.669-21.288-16.669-21.288z"/><path d="m772.112 709.859s-45.489 20.381-63.974 10.379c-18.485-10.001.546-60.238.546-60.238l12.379 4.202s-10.344 25.613 1.49 29.416c11.833 3.803 47.293-21.18 47.293-21.18z"/></g><path d="m857.752 796.976c-1.309.85-2.369 1.992-3.085 3.321-.43 1.128-.585 2.332-.453 3.522-.079 2.89 1.235 5.66 3.581 7.548 1.648.883 3.496 1.393 5.393 1.49 1.164.191 2.354.191 3.517 0 1.186-.211 2.177-.969 2.632-2.013.155-.661.22-1.337.194-2.013.151-3.321 2.653-6.038 4.724-8.755.501-.525.823-1.176.928-1.872-.012-.77-.301-1.514-.82-2.113-1.402-1.892-4.875-5.374-7.658-5.073-2.783.302-6.796 4.308-8.953 5.958z" fill="#f4ad7d"/><path d="m728.871 652.435c.593-.824.997-1.756 1.186-2.737.151-1.015-.385-2.011-1.34-2.487-1.516-.564-3.318.919-4.812.293-.505-.269-.929-.658-1.23-1.129-1.764-2.43-2.777-5.282-2.922-8.232.086-1.572-.062-3.148-.44-4.68-.444-1.577-2.027-2.614-3.735-2.445-1.406.313-2.197 1.671-3.076 2.758s-2.636 2.382-3.779 3.74c-1.951 2.791-3.067 6.034-3.23 9.382-.615 4.179-1.01 8.963 2.066 11.972 2.372 2.319 9.601 5.057 12.919 3.824 3.669-1.379 6.547-7.25 8.393-10.259z" fill="#f4ad7d"/></svg>