<svg width="17" height="17" viewBox="0 0 17 17" fill="none" xmlns="http://www.w3.org/2000/svg">
<path fill-rule="evenodd" clip-rule="evenodd" d="M5.28564 0.605225H11.2856C14.0466 0.605225 16.2856 2.84422 16.2856 5.60522V11.6052C16.2856 14.3662 14.0466 16.6052 11.2856 16.6052H5.28564C2.52464 16.6052 0.285645 14.3662 0.285645 11.6052V5.60522C0.285645 2.84422 2.52464 0.605225 5.28564 0.605225ZM11.2856 15.1052C13.2156 15.1052 14.7856 13.5352 14.7856 11.6052V5.60522C14.7856 3.67522 13.2156 2.10522 11.2856 2.10522H5.28564C3.35564 2.10522 1.78564 3.67522 1.78564 5.60522V11.6052C1.78564 13.5352 3.35564 15.1052 5.28564 15.1052H11.2856ZM4.28564 8.60522C4.28564 6.39622 6.07664 4.60522 8.28564 4.60522C10.4946 4.60522 12.2856 6.39622 12.2856 8.60522C12.2856 10.8142 10.4946 12.6052 8.28564 12.6052C6.07664 12.6052 4.28564 10.8142 4.28564 8.60522ZM5.78564 8.60522C5.78564 9.98322 6.90764 11.1052 8.28564 11.1052C9.66364 11.1052 10.7856 9.98322 10.7856 8.60522C10.7856 7.22622 9.66364 6.10522 8.28564 6.10522C6.90764 6.10522 5.78564 7.22622 5.78564 8.60522ZM13.1187 4.30523C13.1187 4.5996 12.88 4.83823 12.5857 4.83823C12.2913 4.83823 12.0527 4.5996 12.0527 4.30523C12.0527 4.01086 12.2913 3.77223 12.5857 3.77223C12.88 3.77223 13.1187 4.01086 13.1187 4.30523Z" fill="#B0B8BC"/>
</svg>
