<svg width="17" height="17" viewBox="0 0 17 17" fill="none" xmlns="http://www.w3.org/2000/svg">
<path fill-rule="evenodd" clip-rule="evenodd" d="M3.78564 2.35522C3.78564 3.32172 3.00214 4.10522 2.03564 4.10522C1.06915 4.10522 0.285645 3.32172 0.285645 2.35522C0.285645 1.38873 1.06915 0.605225 2.03564 0.605225C3.00214 0.605225 3.78564 1.38873 3.78564 2.35522ZM0.285645 5.60522H3.86364V16.6052H0.285645V5.60522ZM13.6096 5.73422C13.597 5.73022 13.5845 5.72611 13.5721 5.722C13.5472 5.71378 13.5223 5.70556 13.4956 5.69822C13.4476 5.68722 13.3996 5.67822 13.3506 5.67022C13.1606 5.63222 12.9526 5.60522 12.7086 5.60522C10.6226 5.60522 9.29965 7.12222 8.86364 7.70822V5.60522H5.28564V16.6052H8.86364V10.6052C8.86364 10.6052 11.5676 6.83922 12.7086 9.60522V16.6052H16.2856V9.18222C16.2856 7.52022 15.1466 6.13522 13.6096 5.73422Z" fill="#B0B8BC"/>
</svg>
