<svg width="17" height="17" viewBox="0 0 17 17" fill="none" xmlns="http://www.w3.org/2000/svg">
<path d="M16.2856 3.47748C15.6906 3.73848 15.0566 3.91148 14.3956 3.99548C15.0756 3.58948 15.5946 2.95148 15.8386 2.18248C15.2046 2.56048 14.5046 2.82748 13.7586 2.97648C13.1566 2.33548 12.2986 1.93848 11.3626 1.93848C9.54664 1.93848 8.08464 3.41248 8.08464 5.21948C8.08464 5.47948 8.10664 5.72948 8.16064 5.96748C5.43364 5.83448 3.02064 4.52748 1.39964 2.53648C1.11664 3.02748 0.950645 3.58948 0.950645 4.19448C0.950645 5.33048 1.53564 6.33748 2.40764 6.92048C1.88064 6.91048 1.36364 6.75748 0.925645 6.51648C0.925645 6.52648 0.925645 6.53948 0.925645 6.55248C0.925645 8.14648 2.06264 9.47048 3.55364 9.77548C3.28664 9.84848 2.99564 9.88348 2.69364 9.88348C2.48364 9.88348 2.27164 9.87148 2.07264 9.82748C2.49764 11.1265 3.70364 12.0815 5.13764 12.1125C4.02164 12.9855 2.60464 13.5115 1.07064 13.5115C0.801645 13.5115 0.543645 13.4995 0.285645 13.4665C1.73864 14.4035 3.46064 14.9385 5.31764 14.9385C11.3536 14.9385 14.6536 9.93848 14.6536 5.60448C14.6536 5.45948 14.6486 5.31948 14.6416 5.18048C15.2926 4.71848 15.8396 4.14148 16.2856 3.47748Z" fill="#B0B8BC"/>
</svg>
