<svg width="17" height="17" viewBox="0 0 17 17" fill="none" xmlns="http://www.w3.org/2000/svg">
<path fill-rule="evenodd" clip-rule="evenodd" d="M13.7416 3.36397C14.7006 3.41797 15.1716 3.55997 15.6056 4.33197C16.0576 5.10297 16.2856 6.43097 16.2856 8.76997V8.77297V8.77797C16.2856 11.106 16.0576 12.444 15.6066 13.207C15.1726 13.979 14.7016 14.119 13.7426 14.184C12.7836 14.239 10.3746 14.272 8.28765 14.272C6.19664 14.272 3.78664 14.239 2.82864 14.183C1.87164 14.118 1.40064 13.978 0.962645 13.206C0.515645 12.443 0.285645 11.105 0.285645 8.77697V8.77497V8.77197V8.76897C0.285645 6.43097 0.515645 5.10297 0.962645 4.33197C1.40064 3.55897 1.87264 3.41797 2.82964 3.36297C3.78664 3.29897 6.19664 3.27197 8.28765 3.27197C10.3746 3.27197 12.7836 3.29897 13.7416 3.36397ZM11.2856 8.77197L6.28564 5.77197V11.772L11.2856 8.77197Z" fill="#B0B8BC"/>
</svg>
