<svg width="78" height="21" viewBox="0 0 78 21" fill="none" xmlns="http://www.w3.org/2000/svg">
<path d="M12.9077 16.5723V20H3.56396V16.5723H12.9077ZM5.15088 1.51562V20H0.694824V1.51562H5.15088ZM21.7183 16.5469V10.8848C21.7183 10.4954 21.6632 10.1611 21.5532 9.88184C21.4432 9.60254 21.2697 9.38672 21.0327 9.23438C20.7957 9.07357 20.4784 8.99316 20.0806 8.99316C19.759 8.99316 19.4839 9.04818 19.2554 9.1582C19.0269 9.26823 18.8534 9.43327 18.7349 9.65332C18.6164 9.87337 18.5571 10.1527 18.5571 10.4912H14.2788C14.2788 9.85645 14.4185 9.26823 14.6978 8.72656C14.9855 8.17643 15.3918 7.69824 15.9165 7.29199C16.4497 6.88574 17.0845 6.57259 17.8208 6.35254C18.5656 6.12402 19.395 6.00977 20.3091 6.00977C21.4009 6.00977 22.3742 6.19173 23.229 6.55566C24.0923 6.9196 24.7736 7.46549 25.2729 8.19336C25.7723 8.91276 26.022 9.81836 26.022 10.9102V16.5342C26.022 17.4313 26.0728 18.1126 26.1743 18.5781C26.2759 19.0352 26.4198 19.4372 26.606 19.7842V20H22.3149C22.1118 19.5768 21.9595 19.0605 21.8579 18.4512C21.7648 17.8333 21.7183 17.1986 21.7183 16.5469ZM22.2388 11.6084L22.2642 13.8936H20.3726C19.9748 13.8936 19.6362 13.9486 19.3569 14.0586C19.0861 14.1686 18.866 14.321 18.6968 14.5156C18.536 14.7018 18.4175 14.9134 18.3413 15.1504C18.2736 15.3874 18.2397 15.637 18.2397 15.8994C18.2397 16.1533 18.299 16.3818 18.4175 16.585C18.5444 16.7796 18.7137 16.932 18.9253 17.042C19.1369 17.152 19.3739 17.207 19.6362 17.207C20.1102 17.207 20.5122 17.1182 20.8423 16.9404C21.1808 16.7542 21.439 16.5299 21.6167 16.2676C21.7944 16.0052 21.8833 15.7598 21.8833 15.5312L22.8228 17.2832C22.6535 17.6217 22.4588 17.9645 22.2388 18.3115C22.0272 18.6585 21.7606 18.9801 21.439 19.2764C21.1258 19.5641 20.7407 19.8011 20.2837 19.9873C19.8267 20.165 19.2723 20.2539 18.6206 20.2539C17.7743 20.2539 16.9956 20.0804 16.2847 19.7334C15.5822 19.3864 15.0194 18.904 14.5962 18.2861C14.173 17.6598 13.9614 16.9404 13.9614 16.1279C13.9614 15.417 14.0884 14.7822 14.3423 14.2236C14.6047 13.665 14.9982 13.1911 15.5229 12.8018C16.0477 12.4124 16.7163 12.1162 17.5288 11.9131C18.3413 11.71 19.2977 11.6084 20.3979 11.6084H22.2388ZM32.5981 9.19629V20H28.3198V6.26367H32.3315L32.5981 9.19629ZM32.0903 12.6621L31.0874 12.6875C31.0874 11.638 31.2144 10.7028 31.4683 9.88184C31.7222 9.05241 32.0819 8.34993 32.5474 7.77441C33.0129 7.19889 33.5672 6.76302 34.2104 6.4668C34.8621 6.16211 35.5858 6.00977 36.3813 6.00977C37.0161 6.00977 37.5959 6.10286 38.1206 6.28906C38.6538 6.47526 39.1108 6.77572 39.4917 7.19043C39.881 7.60514 40.1772 8.15527 40.3804 8.84082C40.592 9.5179 40.6978 10.3558 40.6978 11.3545V20H36.394V11.3418C36.394 10.7917 36.3179 10.3727 36.1655 10.085C36.0132 9.78874 35.7931 9.58561 35.5054 9.47559C35.2176 9.36556 34.8664 9.31055 34.4517 9.31055C34.0116 9.31055 33.6392 9.39518 33.3345 9.56445C33.0298 9.73372 32.7843 9.9707 32.5981 10.2754C32.4204 10.5716 32.2892 10.9229 32.2046 11.3291C32.1284 11.7354 32.0903 12.1797 32.0903 12.6621ZM50.9683 16.8516V0.5H55.272V20H51.4126L50.9683 16.8516ZM42.5386 13.2969V13.0303C42.5386 11.9893 42.6528 11.0413 42.8813 10.1865C43.1099 9.32324 43.4484 8.58268 43.897 7.96484C44.3455 7.33854 44.9041 6.85612 45.5728 6.51758C46.2414 6.17904 47.0116 6.00977 47.8833 6.00977C48.6619 6.00977 49.3433 6.19173 49.9272 6.55566C50.5112 6.91113 51.0106 7.41048 51.4253 8.05371C51.84 8.69694 52.1785 9.4502 52.4409 10.3135C52.7033 11.1683 52.9022 12.0908 53.0376 13.0811V13.3984C52.9022 14.3294 52.7033 15.2096 52.4409 16.0391C52.1785 16.86 51.84 17.5879 51.4253 18.2227C51.0106 18.8574 50.507 19.3568 49.9146 19.7207C49.3306 20.0762 48.645 20.2539 47.8579 20.2539C46.9862 20.2539 46.216 20.0804 45.5474 19.7334C44.8872 19.3864 44.3328 18.8997 43.8843 18.2734C43.4442 17.6471 43.1099 16.9108 42.8813 16.0645C42.6528 15.2181 42.5386 14.2956 42.5386 13.2969ZM46.8169 13.0303V13.2969C46.8169 13.8132 46.8507 14.2913 46.9185 14.7314C46.9862 15.1715 47.1004 15.5609 47.2612 15.8994C47.4305 16.2295 47.6506 16.4876 47.9214 16.6738C48.2007 16.86 48.5435 16.9531 48.9497 16.9531C49.4998 16.9531 49.9526 16.8219 50.3081 16.5596C50.672 16.2972 50.9386 15.9248 51.1079 15.4424C51.2856 14.96 51.3618 14.3929 51.3364 13.7412V12.7383C51.3534 12.1797 51.3153 11.6888 51.2222 11.2656C51.1291 10.834 50.981 10.4743 50.7778 10.1865C50.5832 9.89876 50.3335 9.68294 50.0288 9.53906C49.7326 9.38672 49.3813 9.31055 48.9751 9.31055C48.5773 9.31055 48.2388 9.40365 47.9595 9.58984C47.6886 9.77604 47.4686 10.0384 47.2993 10.377C47.13 10.707 47.0073 11.1006 46.9312 11.5576C46.855 12.0062 46.8169 12.4971 46.8169 13.0303ZM62.2163 6.26367V20H57.9253V6.26367H62.2163ZM57.6714 2.72168C57.6714 2.1123 57.8914 1.61296 58.3315 1.22363C58.7716 0.83431 59.3429 0.639648 60.0454 0.639648C60.7479 0.639648 61.3192 0.83431 61.7593 1.22363C62.1994 1.61296 62.4194 2.1123 62.4194 2.72168C62.4194 3.33105 62.1994 3.8304 61.7593 4.21973C61.3192 4.60905 60.7479 4.80371 60.0454 4.80371C59.3429 4.80371 58.7716 4.60905 58.3315 4.21973C57.8914 3.8304 57.6714 3.33105 57.6714 2.72168ZM71.5093 20.2539C70.3921 20.2539 69.3934 20.0804 68.5132 19.7334C67.633 19.3779 66.8882 18.8913 66.2788 18.2734C65.6779 17.6556 65.2166 16.9447 64.895 16.1406C64.5819 15.3366 64.4253 14.486 64.4253 13.5889V13.1064C64.4253 12.0993 64.5649 11.1683 64.8442 10.3135C65.1235 9.4502 65.5382 8.69694 66.0884 8.05371C66.6385 7.41048 67.3283 6.91113 68.1577 6.55566C68.9871 6.19173 69.952 6.00977 71.0522 6.00977C72.0256 6.00977 72.8973 6.16634 73.6675 6.47949C74.4377 6.79264 75.0894 7.24121 75.6226 7.8252C76.1642 8.40918 76.5747 9.11589 76.854 9.94531C77.1418 10.7747 77.2856 11.7057 77.2856 12.7383V14.4775H66.063V11.7988H73.1089V11.4688C73.1174 11.0117 73.0369 10.6224 72.8677 10.3008C72.7069 9.97917 72.4699 9.73372 72.1567 9.56445C71.8436 9.39518 71.4627 9.31055 71.0142 9.31055C70.5487 9.31055 70.1636 9.41211 69.8589 9.61523C69.5627 9.81836 69.3299 10.0977 69.1606 10.4531C68.9998 10.8001 68.8856 11.2021 68.8179 11.6592C68.7502 12.1162 68.7163 12.5986 68.7163 13.1064V13.5889C68.7163 14.0967 68.784 14.5579 68.9194 14.9727C69.0633 15.3874 69.2664 15.7428 69.5288 16.0391C69.7996 16.3268 70.1213 16.5511 70.4937 16.7119C70.8745 16.8727 71.3062 16.9531 71.7886 16.9531C72.3726 16.9531 72.9481 16.8431 73.5151 16.623C74.0822 16.403 74.5688 16.0391 74.9751 15.5312L76.9175 17.8418C76.6382 18.2396 76.2404 18.6247 75.7241 18.9971C75.2163 19.3695 74.6069 19.6742 73.896 19.9111C73.1851 20.1396 72.3895 20.2539 71.5093 20.2539Z" fill="#37447E"/>
</svg>
